<svg width="14" height="25" viewBox="0 0 14 25" fill="none" xmlns="http://www.w3.org/2000/svg">
<path d="M3.67497 2.46359C3.56245 2.35107 3.40984 2.28786 3.25071 2.28786C3.09158 2.28786 2.93897 2.35107 2.82644 2.46359C2.71392 2.57612 2.65071 2.72873 2.65071 2.88786C2.65071 3.04699 2.71392 3.1996 2.82644 3.31212L3.53327 4.01895C3.64579 4.13147 3.7984 4.19468 3.95753 4.19468C4.11666 4.19468 4.26927 4.13147 4.3818 4.01895C4.49432 3.90642 4.55753 3.75381 4.55753 3.59468C4.55753 3.43555 4.49432 3.28294 4.3818 3.17042L3.67497 2.46359ZM7.56293 0.590044C7.56019 0.432744 7.49579 0.282811 7.38358 0.172537C7.27137 0.0622619 7.12034 0.000471643 6.96302 0.000472486C6.80569 0.000472065 6.65466 0.0622636 6.54246 0.172538C6.43025 0.282812 6.36584 0.432744 6.36311 0.590044L6.36311 3.13563C6.36584 3.29293 6.43025 3.44286 6.54246 3.55314C6.65466 3.66341 6.8057 3.7252 6.96302 3.7252C7.12034 3.7252 7.27137 3.66341 7.38358 3.55314C7.49579 3.44286 7.56019 3.29293 7.56293 3.13563L7.56293 0.590044ZM7.56293 17.5606C7.56431 17.4809 7.54982 17.4018 7.52029 17.3278C7.49076 17.2538 7.4468 17.1864 7.39095 17.1296C7.33511 17.0728 7.26851 17.0277 7.19503 16.9969C7.12156 16.966 7.04269 16.9502 6.96302 16.9502C6.88335 16.9502 6.80447 16.966 6.731 16.9969C6.65753 17.0277 6.59093 17.0728 6.53508 17.1296C6.47924 17.1864 6.43527 17.2538 6.40574 17.3278C6.37622 17.4018 6.36172 17.4809 6.36311 17.5606V19.2577C6.36172 19.3373 6.37622 19.4165 6.40574 19.4905C6.43527 19.5645 6.47924 19.6318 6.53508 19.6887C6.59093 19.7455 6.65753 19.7906 6.731 19.8214C6.80447 19.8522 6.88335 19.8681 6.96302 19.8681C7.04269 19.8681 7.12156 19.8522 7.19503 19.8214C7.26851 19.7906 7.33511 19.7455 7.39095 19.6887C7.4468 19.6318 7.49076 19.5645 7.52029 19.4905C7.54982 19.4165 7.56431 19.3373 7.56293 19.2577L7.56293 17.5606ZM0.174793 11.6201L3.39326 14.8385L3.39411 22.1231C3.39404 22.4384 3.45609 22.7506 3.5767 23.0418C3.69732 23.3331 3.87413 23.5978 4.09705 23.8207C4.31997 24.0436 4.58462 24.2204 4.87589 24.341C5.16716 24.4616 5.47934 24.5237 5.79459 24.5236L8.13399 24.5228C8.77038 24.5227 9.38068 24.2698 9.83068 23.8198C10.2807 23.3698 10.5335 22.7595 10.5336 22.1231L10.5336 14.8394L13.7512 11.6218C13.8071 11.5661 13.8514 11.5 13.8817 11.4272C13.912 11.3544 13.9276 11.2763 13.9277 11.1975L13.9277 8.75373C13.9276 8.11734 13.6748 7.50704 13.2248 7.05704C12.7748 6.60704 12.1645 6.35419 11.5281 6.3541L2.39879 6.35494C1.76239 6.35504 1.15209 6.60789 0.702091 7.05789C0.252093 7.50789 -0.00075566 8.11819 -0.000851924 8.75458L-0.000851587 11.1983C-0.000202862 11.3566 0.0629264 11.5082 0.174793 11.6201ZM1.19982 8.75373C1.19973 8.59604 1.23072 8.43987 1.29103 8.29415C1.35134 8.14844 1.43978 8.01605 1.55129 7.90454C1.6628 7.79303 1.79519 7.70459 1.9409 7.64428C2.08661 7.58398 2.24278 7.55298 2.40048 7.55307L11.5273 7.55306C11.6849 7.55298 11.8411 7.58397 11.9868 7.64428C12.1325 7.70459 12.2649 7.79303 12.3764 7.90454C12.488 8.01605 12.5764 8.14844 12.6367 8.29415C12.697 8.43986 12.728 8.59603 12.7279 8.75373L12.7271 10.5959L1.20066 10.5959L1.19982 8.75373ZM2.04749 11.7957L11.8785 11.7974L9.6851 13.9908L4.24094 13.9908L2.04749 11.7957ZM4.59308 15.1898L9.3338 15.189L9.3338 22.1231C9.33376 22.4413 9.20733 22.7465 8.98233 22.9715C8.75733 23.1965 8.45218 23.3229 8.13399 23.323L5.79459 23.3238C5.6369 23.3239 5.48073 23.2929 5.33501 23.2326C5.1893 23.1723 5.05691 23.0838 4.9454 22.9723C4.83389 22.8608 4.74545 22.7284 4.68514 22.5827C4.62484 22.437 4.59384 22.2808 4.59393 22.1231L4.59308 15.1898ZM9.54424 3.17042C9.43172 3.28294 9.3685 3.43555 9.3685 3.59468C9.36851 3.75381 9.43172 3.90643 9.54424 4.01895C9.65676 4.13147 9.80938 4.19468 9.9685 4.19468C10.1276 4.19468 10.2802 4.13147 10.3928 4.01895L11.1004 3.31128C11.213 3.19875 11.2762 3.04614 11.2762 2.88701C11.2762 2.72788 11.213 2.57527 11.1004 2.46275C10.9879 2.35022 10.8353 2.28701 10.6762 2.28701C10.517 2.28701 10.3644 2.35022 10.2519 2.46275L9.54424 3.17042Z" fill="black" style="fill:black;fill-opacity:1;"/>
</svg>
