<svg width="148" height="60" viewBox="0 0 148 60" fill="none" xmlns="http://www.w3.org/2000/svg">
<path d="M50 25.0367V18C50 18 40.7336 18 36.435 18C34.6847 18 33.1403 19.8346 33.1403 21.3676C33.1403 22.8505 33.1403 24.8105 33.1403 24.8105C33.1403 24.8105 29.318 18 25.1866 18C23.9511 18 21.583 18 21.583 18V24.8105C21.583 24.8105 17.5253 18 13.2947 18C11.982 18 10 18 10 18V25.0618H21.583V42H28.816C28.816 42 28.816 38.4314 28.816 36.0188C28.816 31.2581 21.8662 25.0618 21.8662 25.0618H33.1403V42H40.3732C40.3732 42 40.3732 38.5068 40.3732 36.0188C40.3732 30.8168 33.3977 25.0618 33.3977 25.0618L50 25.0367Z" fill="#185ADC" stroke="#185ADC" style="fill:#185ADC;fill:color(display-p3 0.0958 0.3512 0.8621);fill-opacity:1;stroke:#185ADC;stroke:color(display-p3 0.0958 0.3512 0.8621);stroke-opacity:1;" stroke-width="0.0527671"/>
<path d="M73.5684 36.5H70.7168V26.7344H67.3867V24.8398C68.2656 24.8008 68.8809 24.7422 69.2324 24.6641C69.7923 24.5404 70.248 24.293 70.5996 23.9219C70.8405 23.668 71.0228 23.3294 71.1465 22.9062C71.2181 22.6523 71.2539 22.4635 71.2539 22.3398H73.5684V36.5ZM89.1152 22.1055V24.6543H84.8086V36.5H81.7812V24.6543H77.4551V22.1055H89.1152ZM96.8984 36.9004C94.8411 36.9004 93.2689 36.3405 92.1816 35.2207C90.7233 33.847 89.9941 31.8678 89.9941 29.2832C89.9941 26.6465 90.7233 24.6673 92.1816 23.3457C93.2689 22.2259 94.8411 21.666 96.8984 21.666C98.9557 21.666 100.528 22.2259 101.615 23.3457C103.067 24.6673 103.793 26.6465 103.793 29.2832C103.793 31.8678 103.067 33.847 101.615 35.2207C100.528 36.3405 98.9557 36.9004 96.8984 36.9004ZM99.7402 33.0332C100.437 32.1543 100.785 30.9043 100.785 29.2832C100.785 27.6686 100.434 26.4219 99.7305 25.543C99.0339 24.6576 98.0898 24.2148 96.8984 24.2148C95.707 24.2148 94.7565 24.6543 94.0469 25.5332C93.3372 26.4121 92.9824 27.6621 92.9824 29.2832C92.9824 30.9043 93.3372 32.1543 94.0469 33.0332C94.7565 33.9121 95.707 34.3516 96.8984 34.3516C98.0898 34.3516 99.0371 33.9121 99.7402 33.0332ZM114.613 30.9531V22.1055H117.67V30.9531C117.67 32.4831 117.432 33.6745 116.957 34.5273C116.072 36.0898 114.382 36.8711 111.889 36.8711C109.395 36.8711 107.702 36.0898 106.811 34.5273C106.335 33.6745 106.098 32.4831 106.098 30.9531V22.1055H109.154V30.9531C109.154 31.9427 109.271 32.6654 109.506 33.1211C109.87 33.9284 110.665 34.332 111.889 34.332C113.106 34.332 113.897 33.9284 114.262 33.1211C114.496 32.6654 114.613 31.9427 114.613 30.9531ZM130.707 35.4258C129.633 36.4089 128.259 36.9004 126.586 36.9004C124.516 36.9004 122.888 36.2363 121.703 34.9082C120.518 33.5736 119.926 31.7441 119.926 29.4199C119.926 26.9069 120.6 24.9701 121.947 23.6094C123.119 22.4245 124.61 21.832 126.42 21.832C128.842 21.832 130.613 22.6263 131.732 24.2148C132.351 25.1068 132.683 26.002 132.729 26.9004H129.721C129.525 26.2103 129.275 25.6895 128.969 25.3379C128.422 24.7129 127.611 24.4004 126.537 24.4004C125.443 24.4004 124.581 24.8431 123.949 25.7285C123.318 26.6074 123.002 27.8542 123.002 29.4688C123.002 31.0833 123.334 32.2943 123.998 33.1016C124.669 33.9023 125.518 34.3027 126.547 34.3027C127.602 34.3027 128.406 33.9577 128.959 33.2676C129.265 32.8965 129.519 32.3398 129.721 31.5977H132.699C132.439 33.1667 131.775 34.4427 130.707 35.4258ZM143.588 36.5V30.0742H137.963V36.5H134.984V22.1055H137.963V27.5938H143.588V22.1055H146.576V36.5H143.588Z" fill="#23262B" style="fill:#23262B;fill:color(display-p3 0.1373 0.1490 0.1686);fill-opacity:1;"/>
</svg>
