<svg width="103" height="84" viewBox="0 0 103 84" fill="none" xmlns="http://www.w3.org/2000/svg">
<path d="M34.7553 0L37.3883 9.48935C38.828 14.6777 39.5478 17.2718 40.9732 19.3429C42.2338 21.1745 43.8858 22.7028 45.8096 23.8175C47.985 25.0779 50.6272 25.5943 55.9116 26.6269L69.5106 29.2844L55.9116 31.9419C50.6272 32.9746 47.985 33.4909 45.8096 34.7513C43.8858 35.866 42.2338 37.3944 40.9732 39.2259C39.5478 41.297 38.828 43.8911 37.3883 49.0795L34.7553 58.5688L32.1223 49.0795C30.6827 43.8911 29.9628 41.297 28.5374 39.2259C27.2768 37.3944 25.6249 35.866 23.7011 34.7513C21.5256 33.4909 18.8834 32.9746 13.599 31.9419L0 29.2844L13.599 26.6269C18.8834 25.5943 21.5256 25.0779 23.7011 23.8175C25.6249 22.7028 27.2768 21.1745 28.5374 19.3429C29.9628 17.2718 30.6827 14.6777 32.1223 9.48935L34.7553 0Z" fill="#3083FF" style="fill:#3083FF;fill:color(display-p3 0.1875 0.5125 1.0000);fill-opacity:1;"/>
<path d="M80.2776 46.2383L80.5566 47.2552C81.9823 52.4518 82.6952 55.0501 84.1161 57.1265C85.3727 58.9626 87.0219 60.4962 88.9444 61.6162C91.1184 62.8826 93.7616 63.405 99.0481 64.4498L102.434 65.119L99.0481 65.7882C93.7616 66.833 91.1184 67.3554 88.9444 68.6219C87.0219 69.7418 85.3727 71.2754 84.1161 73.1116C82.6952 75.1879 81.9823 77.7862 80.5566 82.9829L80.2776 83.9997L79.9986 82.9829C78.5729 77.7862 77.86 75.1879 76.4391 73.1116C75.1825 71.2754 73.5333 69.7418 71.6108 68.6219C69.4368 67.3554 66.7936 66.833 61.5072 65.7882L58.1211 65.119L61.5072 64.4498C66.7936 63.405 69.4368 62.8826 71.6108 61.6162C73.5333 60.4962 75.1825 58.9626 76.4391 57.1265C77.86 55.0501 78.5729 52.4518 79.9986 47.2552L80.2776 46.2383Z" fill="#3083FF" style="fill:#3083FF;fill:color(display-p3 0.1875 0.5125 1.0000);fill-opacity:1;"/>
</svg>
