<svg width="19" height="15" viewBox="0 0 19 15" fill="none" xmlns="http://www.w3.org/2000/svg">
<path d="M16.1009 5.13598C16.1009 5.13598 16.9781 6.68427 16.9781 7.76756C16.9781 9.08334 16.9781 10.8377 16.5395 12.1535C16.2331 13.0727 16.1009 13.9079 14.7851 13.9079C13.4693 13.9079 13.4693 12.1535 12.5921 12.1535C11.7149 12.1535 7.76754 12.1535 5.57456 12.1535C4.71815 12.1535 4.69737 13.9079 3.38158 13.9079C2.06579 13.9079 1.81721 13.1036 1.62719 12.1535C1.27632 10.3991 0.858061 8.33281 1.1886 7.32896C1.42816 6.60139 2.06579 5.13598 2.06579 5.13598M16.1009 5.13598L17.4167 4.69734M16.1009 5.13598C16.1009 5.13598 13.9079 0.750012 12.5921 0.750012C9.96053 0.750012 7.76754 0.749985 5.57456 0.750012C4.48133 0.750026 2.06579 5.13598 2.06579 5.13598M16.1009 5.13598C16.1009 5.13598 15.3154 6.89036 14.3465 6.89036C11.7149 6.89036 7.32895 6.89036 3.82018 6.89036C2.85125 6.89036 2.06579 5.13598 2.06579 5.13598M2.06579 5.13598L0.75 4.69738M3.38158 9.08334C3.38158 9.46634 3.43718 9.96054 3.82018 9.96054C4.25877 9.96054 5.13596 9.96054 5.57456 9.96054C5.82956 9.96054 3.38158 8.64475 3.38158 9.08334ZM12.5921 9.96054C12.1955 9.96054 14.7851 8.64475 14.7851 9.08334C14.7851 9.52194 14.5516 9.96054 14.3465 9.96054C13.9079 9.96054 12.9887 9.96054 12.5921 9.96054Z" stroke="black" style="stroke:black;stroke-opacity:1;" stroke-width="1.5" stroke-linecap="round"/>
</svg>
