<svg width="20" height="19" viewBox="0 0 20 19" fill="none" xmlns="http://www.w3.org/2000/svg">
<path fill-rule="evenodd" clip-rule="evenodd" d="M18.751 18.9395H11.498C11.084 18.9395 10.748 18.6035 10.748 18.1895C10.748 17.7755 11.084 17.4395 11.498 17.4395H18.751C19.165 17.4395 19.501 17.7755 19.501 18.1895C19.501 18.6035 19.165 18.9395 18.751 18.9395Z" fill="#3083FF" style="fill:#3083FF;fill:color(display-p3 0.1875 0.5125 1.0000);fill-opacity:1;"/>
<mask id="mask0_462_1662" style="mask-type:luminance" maskUnits="userSpaceOnUse" x="0" y="0" width="18" height="19">
<path fill-rule="evenodd" clip-rule="evenodd" d="M0 0H17.1806V18.9395H0V0Z" fill="white" style="fill:white;fill-opacity:1;"/>
</mask>
<g mask="url(#mask0_462_1662)">
<path fill-rule="evenodd" clip-rule="evenodd" d="M11.1103 2.01664L1.69527 13.7916C1.52427 14.0056 1.46127 14.2816 1.52427 14.5466L2.20527 17.4316L5.24427 17.3936C5.53327 17.3906 5.80027 17.2616 5.97727 17.0416C9.19427 13.0166 15.3273 5.34264 15.5013 5.11764C15.6653 4.85164 15.7293 4.47564 15.6433 4.11364C15.5553 3.74264 15.3243 3.42764 14.9913 3.22664C14.9203 3.17764 13.2353 1.86964 13.1833 1.82864C12.5493 1.32064 11.6243 1.40864 11.1103 2.01664ZM1.61327 18.9396C1.26627 18.9396 0.964274 18.7016 0.883274 18.3626L0.0642743 14.8916C-0.104726 14.1726 0.0632743 13.4306 0.524274 12.8546L9.94427 1.07264C9.94827 1.06864 9.95127 1.06364 9.95527 1.05964C10.9883 -0.175357 12.8563 -0.357357 14.1163 0.653643C14.1663 0.692643 15.8393 1.99264 15.8393 1.99264C16.4473 2.35464 16.9223 3.00164 17.1023 3.76764C17.2813 4.52564 17.1513 5.30764 16.7343 5.96864C16.7033 6.01764 16.6763 6.05964 7.14827 17.9796C6.68927 18.5516 6.00127 18.8846 5.26227 18.8936L1.62327 18.9396H1.61327Z" fill="#3083FF" style="fill:#3083FF;fill:color(display-p3 0.1875 0.5125 1.0000);fill-opacity:1;"/>
</g>
<path fill-rule="evenodd" clip-rule="evenodd" d="M14.2234 8.68438C14.0634 8.68438 13.9034 8.63338 13.7664 8.52938L8.31442 4.34138C7.98642 4.08938 7.92442 3.61938 8.17642 3.28938C8.42942 2.96138 8.89942 2.90038 9.22842 3.15238L14.6814 7.33938C15.0094 7.59138 15.0714 8.06238 14.8184 8.39138C14.6714 8.58338 14.4484 8.68438 14.2234 8.68438Z" fill="#3083FF" style="fill:#3083FF;fill:color(display-p3 0.1875 0.5125 1.0000);fill-opacity:1;"/>
</svg>
