<svg width="19" height="20" viewBox="0 0 19 20" fill="none" xmlns="http://www.w3.org/2000/svg">
<path d="M16.3238 7.46777C16.3238 7.46777 15.7808 14.2028 15.4658 17.0398C15.3158 18.3948 14.4788 19.1888 13.1078 19.2138C10.4988 19.2608 7.88681 19.2638 5.27881 19.2088C3.95981 19.1818 3.13681 18.3778 2.98981 17.0468C2.67281 14.1848 2.13281 7.46777 2.13281 7.46777" stroke="white" style="stroke:white;stroke-opacity:1;" stroke-width="1.5" stroke-linecap="round" stroke-linejoin="round"/>
<path d="M17.708 4.23926H0.75" stroke="white" style="stroke:white;stroke-opacity:1;" stroke-width="1.5" stroke-linecap="round" stroke-linejoin="round"/>
<path d="M14.4386 4.239C13.6536 4.239 12.9776 3.684 12.8236 2.915L12.5806 1.699C12.4306 1.138 11.9226 0.75 11.3436 0.75H7.11063C6.53163 0.75 6.02363 1.138 5.87363 1.699L5.63063 2.915C5.47663 3.684 4.80063 4.239 4.01562 4.239" stroke="white" style="stroke:white;stroke-opacity:1;" stroke-width="1.5" stroke-linecap="round" stroke-linejoin="round"/>
</svg>
