<svg width="22" height="22" viewBox="0 0 22 22" fill="none" xmlns="http://www.w3.org/2000/svg">
<path d="M0.601562 10.5996C0.601562 16.1226 5.07856 20.5996 10.6016 20.5996C16.1246 20.5996 20.6016 16.1226 20.6016 10.5996C20.6016 5.07661 16.1246 0.599609 10.6016 0.599609C5.07856 0.599609 0.601562 5.07661 0.601562 10.5996Z" stroke="black" style="stroke:black;stroke-opacity:1;" stroke-width="1.2" stroke-linecap="round" stroke-linejoin="round"/>
<path d="M11.6005 0.649414C11.6005 0.649414 14.6005 4.59941 14.6005 10.5994C14.6005 16.5994 11.6005 20.5494 11.6005 20.5494M9.60047 20.5494C9.60047 20.5494 6.60047 16.5994 6.60047 10.5994C6.60047 4.59941 9.60047 0.649414 9.60047 0.649414M1.23047 14.0994H19.9705M1.23047 7.09941H19.9705" stroke="black" style="stroke:black;stroke-opacity:1;" stroke-width="1.2" stroke-linecap="round" stroke-linejoin="round"/>
</svg>
