<svg width="59" height="17" viewBox="0 0 59 17" fill="none" xmlns="http://www.w3.org/2000/svg">
<path fill-rule="evenodd" clip-rule="evenodd" d="M17.686 8.51275C17.686 10.2289 18.7569 11.3939 20.363 11.3939C21.9681 11.3939 23.1031 10.1865 23.1031 8.4915C23.1031 6.839 21.9477 5.61005 20.363 5.61005C18.7784 5.61005 17.686 6.79655 17.686 8.51275ZM17.7292 4.27531C18.4572 3.49119 19.5707 3.02515 20.8985 3.02515C23.8756 3.02515 26.0403 5.33605 26.0403 8.5134C26.0403 11.6908 23.8773 14 20.9001 14C19.5281 14 18.3931 13.5143 17.6648 12.6652C17.6008 13.449 17.0224 14 16.2727 14C15.4589 14 14.8379 13.3645 14.8379 12.5382V1.46212C14.8379 0.63586 15.4589 0 16.2941 0C17.1082 0 17.7292 0.61463 17.7292 1.46212V4.27531ZM55.6155 8.0254L58.6565 11.7964C58.8925 12.0933 58.9995 12.3683 58.9995 12.6864C58.9995 13.4278 58.4195 13.9999 57.693 13.9999C57.2435 13.9999 56.9005 13.8294 56.6225 13.4702L53.0025 9.06325C52.681 8.6397 52.5525 8.34315 52.5525 8.0254C52.5525 7.66515 52.7035 7.36865 53.0665 6.96595L56.4505 3.4715C56.708 3.18998 57.0735 3.02866 57.457 3.02637C58.207 3.02637 58.785 3.57732 58.785 4.29776C58.785 4.65798 58.635 4.99697 58.314 5.31475L55.6155 8.0254ZM50.6475 0.0095215C49.8124 0.0095215 49.1914 0.64538 49.1914 1.47164V12.5382C49.1914 13.3645 49.8124 14 50.6475 14C51.4615 14 52.0825 13.3857 52.0825 12.5382V1.47164C52.0825 0.62415 51.483 0.0095215 50.6475 0.0095215ZM40.745 4.10581C41.4947 3.42782 42.5442 3.02515 43.7221 3.02515C46.1423 3.02515 47.7065 4.67799 47.7065 7.24135V12.5382C47.7065 13.3857 47.107 14 46.2717 14C45.4579 14 44.8366 13.3645 44.8366 12.5382V7.6228C44.8366 6.4151 44.0446 5.58885 42.8661 5.58885C41.6875 5.58885 40.8523 6.4363 40.8523 7.6228V12.5382C40.8523 13.3857 40.231 14 39.4172 14C38.5819 14 37.961 13.3645 37.961 12.5382V4.46603C37.961 3.63978 38.5819 3.02515 39.3957 3.02515C40.0596 3.02515 40.5951 3.47028 40.745 4.10581ZM31.3572 11.9024C30.415 11.9024 29.8366 11.4576 29.8366 10.7593C29.8366 10.0611 30.3506 9.69985 31.3143 9.69985H33.5846V9.82725C33.5846 11.0137 32.6209 11.9024 31.3572 11.9024ZM31.8927 3.02515C30.3506 3.02515 28.9588 3.49118 28.0592 4.31777C27.6736 4.67701 27.4593 5.0591 27.4593 5.4608C27.4593 6.09635 27.9948 6.62605 28.7016 6.62605C28.9799 6.62605 29.2156 6.54115 29.5599 6.28705C30.1809 5.75735 30.8448 5.50325 31.5945 5.50325C32.8794 5.50325 33.5862 6.18125 33.5862 7.3465V7.81255H30.9306C28.4464 7.81255 26.9258 8.9778 26.9258 10.8635C26.9258 12.7276 28.4035 13.9987 30.588 13.9987C31.8514 13.9987 32.9223 13.5964 33.6935 12.8759C33.8219 13.5114 34.3786 13.9775 35.0854 13.9775C35.8777 13.9775 36.4775 13.3844 36.4775 12.5582V7.51665C36.4759 4.65807 34.8054 3.02515 31.8927 3.02515ZM11.0325 3.02605C11.8063 3.02702 12.4326 3.64851 12.4316 4.41402L12.4332 12.6129C12.4309 13.3781 11.8043 13.9977 11.0308 13.9999C10.2573 13.9977 9.63071 13.3781 9.62841 12.6129V7.76345L9.05266 8.33305C8.50396 8.87255 7.61786 8.87255 7.06921 8.33305C6.52381 7.79025 6.52381 6.91335 7.06921 6.3706L10.0404 3.43133C10.3035 3.17138 10.6604 3.02539 11.0325 3.02605Z" fill="url(#paint0_linear_363_3077)" style=""/>
<path fill-rule="evenodd" clip-rule="evenodd" d="M3.25726e-06 4.41403C-0.0016474 3.64852 0.624285 3.02638 1.39812 3.02442C1.77117 3.02344 2.12936 3.17007 2.39314 3.43134L5.36435 6.37059C5.91005 6.91339 5.91005 7.79024 5.36435 8.33304C4.81565 8.87254 3.92924 8.87254 3.38056 8.33304L2.80514 7.76379V12.6129C2.80283 13.3781 2.17624 13.9976 1.40273 13.9999C0.629235 13.998 0.00231419 13.3781 3.25726e-06 12.6129V4.41403Z" fill="#FABF00" style="fill:#FABF00;fill:color(display-p3 0.9804 0.7490 0.0000);fill-opacity:1;"/>
<defs>
<linearGradient id="paint0_linear_363_3077" x1="9.54666" y1="12.8014" x2="9.88626" y2="-2.7225" gradientUnits="userSpaceOnUse">
<stop stop-color="#0092A1" style="stop-color:#0092A1;stop-color:color(display-p3 0.0000 0.5725 0.6314);stop-opacity:1;"/>
<stop offset="1" stop-color="#009C4D" style="stop-color:#009C4D;stop-color:color(display-p3 0.0000 0.6118 0.3020);stop-opacity:1;"/>
</linearGradient>
</defs>
</svg>
