<svg width="24" height="24" viewBox="0 0 24 24" fill="none" xmlns="http://www.w3.org/2000/svg">
<path d="M2.65518 9.72661C2.05246 10.3294 1.71387 11.1469 1.71387 11.9993C1.71387 12.8517 2.05246 13.6693 2.65518 14.272L9.72661 21.3435C10.3294 21.9462 11.1469 22.2848 11.9993 22.2848C12.8517 22.2848 13.6693 21.9462 14.272 21.3435L21.3435 14.272C21.9462 13.6693 22.2848 12.8517 22.2848 11.9993C22.2848 11.1469 21.9462 10.3294 21.3435 9.72661L14.272 2.65518C13.6693 2.05246 12.8517 1.71387 11.9993 1.71387C11.1469 1.71387 10.3294 2.05246 9.72661 2.65518L2.65518 9.72661ZM3.56461 13.3635C3.38552 13.1844 3.24346 12.9718 3.14654 12.7378C3.04962 12.5038 2.99974 12.253 2.99974 11.9998C2.99974 11.7465 3.04962 11.4957 3.14654 11.2617C3.24346 11.0277 3.38552 10.8151 3.56461 10.636L10.636 3.56461C10.8151 3.38552 11.0277 3.24346 11.2617 3.14654C11.4957 3.04962 11.7465 2.99974 11.9998 2.99974C12.253 2.99974 12.5038 3.04962 12.7378 3.14654C12.9718 3.24346 13.1844 3.38552 13.3635 3.56461L20.4349 10.636C20.614 10.8151 20.756 11.0277 20.853 11.2617C20.9499 11.4957 20.9998 11.7465 20.9998 11.9998C20.9998 12.253 20.9499 12.5038 20.853 12.7378C20.756 12.9718 20.614 13.1844 20.4349 13.3635L13.3635 20.4349C13.1844 20.614 12.9718 20.756 12.7378 20.853C12.5038 20.9499 12.253 20.9998 11.9998 20.9998C11.7465 20.9998 11.4957 20.9499 11.2617 20.853C11.0277 20.756 10.8151 20.614 10.636 20.4349L3.56461 13.3635ZM13.5246 7.04547C13.4658 6.98231 13.3948 6.93165 13.3159 6.89651C13.2371 6.86137 13.1519 6.84248 13.0656 6.84096C12.9793 6.83944 12.8936 6.85531 12.8135 6.88765C12.7335 6.91998 12.6608 6.9681 12.5997 7.02915C12.5387 7.09019 12.4906 7.16291 12.4582 7.24295C12.4259 7.323 12.41 7.40874 12.4115 7.49506C12.4131 7.58137 12.4319 7.6665 12.4671 7.74536C12.5022 7.82421 12.5529 7.89518 12.616 7.95404L13.6618 8.99975H12.2132C11.3607 8.99975 10.5431 9.3384 9.94034 9.94119C9.33754 10.544 8.99889 11.3616 8.99889 12.214V15.6426C8.99889 15.8131 9.06662 15.9766 9.18718 16.0972C9.30774 16.2177 9.47126 16.2855 9.64175 16.2855C9.81225 16.2855 9.97576 16.2177 10.0963 16.0972C10.2169 15.9766 10.2846 15.8131 10.2846 15.6426V12.214C10.2846 11.9607 10.3345 11.7098 10.4315 11.4758C10.5285 11.2418 10.6706 11.0291 10.8498 10.85C11.029 10.6709 11.2417 10.5289 11.4757 10.432C11.7098 10.3352 11.9607 10.2854 12.214 10.2855H13.6626L12.6169 11.3312C12.5537 11.39 12.5031 11.461 12.4679 11.5399C12.4328 11.6187 12.4139 11.7038 12.4124 11.7902C12.4109 11.8765 12.4267 11.9622 12.4591 12.0423C12.4914 12.1223 12.5395 12.195 12.6006 12.2561C12.6616 12.3171 12.7343 12.3652 12.8144 12.3976C12.8944 12.4299 12.9802 12.4458 13.0665 12.4443C13.1528 12.4427 13.2379 12.4238 13.3168 12.3887C13.3956 12.3536 13.4666 12.3029 13.5255 12.2398L15.6683 10.0969C15.7887 9.97636 15.8563 9.81297 15.8563 9.64261C15.8563 9.47225 15.7887 9.30886 15.6683 9.18832L13.5246 7.04547Z" fill="white" style="fill:white;fill-opacity:1;"/>
</svg>
