<svg width="26" height="26" viewBox="0 0 26 26" fill="none" xmlns="http://www.w3.org/2000/svg">
<path d="M3.00018 10.8337C2.53435 10.8337 2.16602 10.4653 2.16602 9.99949V7.49699C2.16602 4.56116 4.56018 2.16699 7.49602 2.16699H9.99852C10.4643 2.16699 10.8327 2.53533 10.8327 3.00116C10.8327 3.46699 10.4643 3.83533 9.99852 3.83533H7.49602C5.47018 3.83533 3.83435 5.48199 3.83435 7.49699V9.99949C3.83435 10.4653 3.45518 10.8337 3.00018 10.8337Z" fill="white" style="fill:white;fill-opacity:1;"/>
<path d="M22.9985 10.8337C22.5435 10.8337 22.1643 10.4653 22.1643 9.99949V7.49699C22.1643 5.47116 20.5177 3.83533 18.5027 3.83533H16.0002C15.5343 3.83533 15.166 3.45616 15.166 3.00116C15.166 2.54616 15.5343 2.16699 16.0002 2.16699H18.5027C21.4385 2.16699 23.8327 4.56116 23.8327 7.49699V9.99949C23.8327 10.4653 23.4643 10.8337 22.9985 10.8337Z" fill="white" style="fill:white;fill-opacity:1;"/>
<path d="M18.5041 23.833H16.9982C16.5432 23.833 16.1641 23.4647 16.1641 22.9988C16.1641 22.5438 16.5324 22.1647 16.9982 22.1647H18.5041C20.5299 22.1647 22.1657 20.518 22.1657 18.503V17.008C22.1657 16.553 22.5341 16.1738 22.9999 16.1738C23.4549 16.1738 23.8341 16.5422 23.8341 17.008V18.503C23.8341 21.4388 21.4399 23.833 18.5041 23.833Z" fill="white" style="fill:white;fill-opacity:1;"/>
<path d="M9.99852 23.8327H7.49602C4.56018 23.8327 2.16602 21.4385 2.16602 18.5027V16.0002C2.16602 15.5343 2.53435 15.166 3.00018 15.166C3.46602 15.166 3.83435 15.5343 3.83435 16.0002V18.5027C3.83435 20.5285 5.48102 22.1643 7.49602 22.1643H9.99852C10.4535 22.1643 10.8327 22.5327 10.8327 22.9985C10.8327 23.4643 10.4643 23.8327 9.99852 23.8327Z" fill="white" style="fill:white;fill-opacity:1;"/>
<path d="M19.9988 12.166H18.5255H7.47547H6.00214C5.5363 12.166 5.16797 12.5452 5.16797 13.0002C5.16797 13.4552 5.5363 13.8344 6.00214 13.8344H7.47547H18.5255H19.9988C20.4646 13.8344 20.833 13.4552 20.833 13.0002C20.833 12.5452 20.4646 12.166 19.9988 12.166Z" fill="white" style="fill:white;fill-opacity:1;"/>
<path d="M7.47461 15.1025V15.46C7.47461 17.2583 8.92628 18.71 10.7246 18.71H15.2746C17.0729 18.71 18.5246 17.2583 18.5246 15.46V15.1025C18.5246 14.9725 18.4271 14.875 18.2971 14.875H7.70211C7.57211 14.875 7.47461 14.9725 7.47461 15.1025Z" fill="white" style="fill:white;fill-opacity:1;"/>
<path d="M7.47461 10.8975V10.54C7.47461 8.7417 8.92628 7.29004 10.7246 7.29004H15.2746C17.0729 7.29004 18.5246 8.7417 18.5246 10.54V10.8975C18.5246 11.0275 18.4271 11.125 18.2971 11.125H7.70211C7.57211 11.125 7.47461 11.0275 7.47461 10.8975Z" fill="white" style="fill:white;fill-opacity:1;"/>
</svg>
