<svg width="20" height="20" viewBox="0 0 20 20" fill="none" xmlns="http://www.w3.org/2000/svg">
<path fill-rule="evenodd" clip-rule="evenodd" d="M10 1.5C5.313 1.5 1.5 5.313 1.5 10C1.5 14.687 5.313 18.5 10 18.5C14.687 18.5 18.5 14.687 18.5 10C18.5 5.313 14.687 1.5 10 1.5ZM10 20C4.486 20 0 15.514 0 10C0 4.486 4.486 0 10 0C15.514 0 20 4.486 20 10C20 15.514 15.514 20 10 20Z" fill="#3083FF" style="fill:#3083FF;fill:color(display-p3 0.1875 0.5125 1.0000);fill-opacity:1;"/>
<path fill-rule="evenodd" clip-rule="evenodd" d="M13.4321 13.6927C13.3011 13.6927 13.1691 13.6587 13.0481 13.5877L9.27811 11.3387C9.05211 11.2027 8.91211 10.9577 8.91211 10.6937V5.8457C8.91211 5.4317 9.24811 5.0957 9.66211 5.0957C10.0771 5.0957 10.4121 5.4317 10.4121 5.8457V10.2677L13.8171 12.2977C14.1721 12.5107 14.2891 12.9707 14.0771 13.3267C13.9361 13.5617 13.6871 13.6927 13.4321 13.6927Z" fill="#3083FF" style="fill:#3083FF;fill:color(display-p3 0.1875 0.5125 1.0000);fill-opacity:1;"/>
</svg>
