<svg width="20" height="19" viewBox="0 0 20 19" fill="none" xmlns="http://www.w3.org/2000/svg">
<path d="M6.75 4.07162V17.9326M12.75 0.432617V14.4326M0.75 6.14262C0.75 4.66862 0.75 3.93262 1.143 3.50262C1.28209 3.34965 1.45129 3.22708 1.64 3.14262C2.172 2.90662 2.871 3.13962 4.269 3.60562C5.336 3.96162 5.869 4.13962 6.409 4.12062C6.6071 4.11411 6.80406 4.08798 6.997 4.04262C7.522 3.91762 7.99 3.60562 8.926 2.98262L10.308 2.06062C11.508 1.26062 12.107 0.860617 12.795 0.769617C13.483 0.676617 14.167 0.904617 15.534 1.36062L16.699 1.74862C17.689 2.07862 18.184 2.24362 18.467 2.63662C18.75 3.02962 18.75 3.55262 18.75 4.59462V12.7236C18.75 14.1966 18.75 14.9336 18.357 15.3636C18.2177 15.5159 18.0485 15.6377 17.86 15.7216C17.328 15.9586 16.629 15.7256 15.231 15.2596C14.164 14.9036 13.631 14.7256 13.091 14.7446C12.8929 14.7511 12.6959 14.7773 12.503 14.8226C11.978 14.9476 11.51 15.2596 10.574 15.8826L9.192 16.8046C7.992 17.6046 7.393 18.0046 6.705 18.0956C6.017 18.1886 5.333 17.9606 3.966 17.5046L2.801 17.1166C1.811 16.7866 1.316 16.6216 1.033 16.2286C0.75 15.8356 0.75 15.3126 0.75 14.2706V6.14262Z" stroke="white" style="stroke:white;stroke-opacity:1;" stroke-width="1.5"/>
</svg>
